<svg width="11" height="20" viewBox="0 0 11 20" fill="none" xmlns="http://www.w3.org/2000/svg">
<rect width="11" height="20" fill="#E5E5E5"/>
<rect width="1600" height="2929" transform="translate(-672 -2151)" fill="white"/>
<rect x="-672" y="-552" width="1600" height="708" fill="#F5F4FA"/>
<g filter="url(#filter0_ddd)">
<path d="M-157 -366H113V58C113 60.2091 111.209 62 109 62H-153C-155.209 62 -157 60.2091 -157 58V-366Z" fill="white"/>
</g>
<path d="M27 9.99994C27 16.0751 24.5376 21.5751 20.5564 25.5563C16.5751 29.5375 11.0751 31.9999 5 31.9999C-1.07513 31.9999 -6.57513 29.5375 -10.5563 25.5563C-14.5376 21.5751 -17 16.0751 -17 9.99994C-17 3.92481 -14.5376 -1.57519 -10.5563 -5.55641C-6.57513 -9.53763 -1.07513 -12.0001 5 -12.0001C11.0751 -12.0001 16.5751 -9.53763 20.5564 -5.55641C24.5376 -1.57519 27 3.92481 27 9.99994Z" fill="white"/>
<g clip-path="url(#clip0)">
<path d="M8.33082 3.32083H10.1567V0.140833C9.84166 0.0975 8.75832 0 7.49666 0C4.86416 0 3.06082 1.65583 3.06082 4.69917V7.5H0.155823V11.055H3.06082V20H6.62249V11.0558H9.40999L9.85249 7.50083H6.62166V5.05167C6.62249 4.02417 6.89916 3.32083 8.33082 3.32083Z" fill="#AFB1B8"/>
</g>
<defs>
<filter id="filter0_ddd" x="-160" y="-368" width="276" height="434" filterUnits="userSpaceOnUse" color-interpolation-filters="sRGB">
<feFlood flood-opacity="0" result="BackgroundImageFix"/>
<feColorMatrix in="SourceAlpha" type="matrix" values="0 0 0 0 0 0 0 0 0 0 0 0 0 0 0 0 0 0 127 0"/>
<feOffset dy="2"/>
<feGaussianBlur stdDeviation="0.5"/>
<feColorMatrix type="matrix" values="0 0 0 0 0 0 0 0 0 0 0 0 0 0 0 0 0 0 0.2 0"/>
<feBlend mode="normal" in2="BackgroundImageFix" result="effect1_dropShadow"/>
<feColorMatrix in="SourceAlpha" type="matrix" values="0 0 0 0 0 0 0 0 0 0 0 0 0 0 0 0 0 0 127 0"/>
<feOffset dy="1"/>
<feGaussianBlur stdDeviation="0.5"/>
<feColorMatrix type="matrix" values="0 0 0 0 0 0 0 0 0 0 0 0 0 0 0 0 0 0 0.14 0"/>
<feBlend mode="normal" in2="effect1_dropShadow" result="effect2_dropShadow"/>
<feColorMatrix in="SourceAlpha" type="matrix" values="0 0 0 0 0 0 0 0 0 0 0 0 0 0 0 0 0 0 127 0"/>
<feOffset dy="1"/>
<feGaussianBlur stdDeviation="1.5"/>
<feColorMatrix type="matrix" values="0 0 0 0 0 0 0 0 0 0 0 0 0 0 0 0 0 0 0.12 0"/>
<feBlend mode="normal" in2="effect2_dropShadow" result="effect3_dropShadow"/>
<feBlend mode="normal" in="SourceGraphic" in2="effect3_dropShadow" result="shape"/>
</filter>
<clipPath id="clip0">
<rect width="20" height="20" fill="white" transform="translate(-5)"/>
</clipPath>
</defs>
</svg>
