<svg width="20" height="18" viewBox="0 0 20 18" fill="none" xmlns="http://www.w3.org/2000/svg">
<rect width="20" height="18" fill="#E5E5E5"/>
<rect width="1600" height="2929" transform="translate(-613 -2152)" fill="white"/>
<rect x="-613" y="-553" width="1600" height="708" fill="#F5F4FA"/>
<g filter="url(#filter0_ddd)">
<path d="M-98 -367H172V57C172 59.2091 170.209 61 168 61H-94C-96.2091 61 -98 59.2091 -98 57V-367Z" fill="white"/>
</g>
<path d="M32 8.99994C32 15.0751 29.5376 20.5751 25.5564 24.5563C21.5751 28.5375 16.0751 30.9999 10 30.9999C3.92487 30.9999 -1.57513 28.5375 -5.55635 24.5563C-9.53757 20.5751 -12 15.0751 -12 8.99994C-12 2.92481 -9.53757 -2.57519 -5.55635 -6.55641C-1.57513 -10.5376 3.92487 -13.0001 10 -13.0001C16.0751 -13.0001 21.5751 -10.5376 25.5564 -6.55641C29.5376 -2.57519 32 2.92481 32 8.99994Z" fill="white"/>
<g clip-path="url(#clip0)">
<path d="M20 2.79875C19.2562 3.125 18.4637 3.34125 17.6375 3.44625C18.4875 2.93875 19.1362 2.14125 19.4412 1.18C18.6487 1.6525 17.7737 1.98625 16.8412 2.1725C16.0887 1.37125 15.0162 0.875 13.8462 0.875C11.5762 0.875 9.74875 2.7175 9.74875 4.97625C9.74875 5.30125 9.77625 5.61375 9.84375 5.91125C6.435 5.745 3.41875 4.11125 1.3925 1.6225C1.03875 2.23625 0.83125 2.93875 0.83125 3.695C0.83125 5.115 1.5625 6.37375 2.6525 7.1025C1.99375 7.09 1.3475 6.89875 0.8 6.5975C0.8 6.61 0.8 6.62625 0.8 6.6425C0.8 8.635 2.22125 10.29 4.085 10.6712C3.75125 10.7625 3.3875 10.8062 3.01 10.8062C2.7475 10.8062 2.4825 10.7912 2.23375 10.7362C2.765 12.36 4.2725 13.5537 6.065 13.5925C4.67 14.6837 2.89875 15.3412 0.98125 15.3412C0.645 15.3412 0.3225 15.3262 0 15.285C1.81625 16.4562 3.96875 17.125 6.29 17.125C13.835 17.125 17.96 10.875 17.96 5.4575C17.96 5.27625 17.9537 5.10125 17.945 4.9275C18.7587 4.35 19.4425 3.62875 20 2.79875Z" fill="#AFB1B8"/>
</g>
<defs>
<filter id="filter0_ddd" x="-101" y="-369" width="276" height="434" filterUnits="userSpaceOnUse" color-interpolation-filters="sRGB">
<feFlood flood-opacity="0" result="BackgroundImageFix"/>
<feColorMatrix in="SourceAlpha" type="matrix" values="0 0 0 0 0 0 0 0 0 0 0 0 0 0 0 0 0 0 127 0"/>
<feOffset dy="2"/>
<feGaussianBlur stdDeviation="0.5"/>
<feColorMatrix type="matrix" values="0 0 0 0 0 0 0 0 0 0 0 0 0 0 0 0 0 0 0.2 0"/>
<feBlend mode="normal" in2="BackgroundImageFix" result="effect1_dropShadow"/>
<feColorMatrix in="SourceAlpha" type="matrix" values="0 0 0 0 0 0 0 0 0 0 0 0 0 0 0 0 0 0 127 0"/>
<feOffset dy="1"/>
<feGaussianBlur stdDeviation="0.5"/>
<feColorMatrix type="matrix" values="0 0 0 0 0 0 0 0 0 0 0 0 0 0 0 0 0 0 0.14 0"/>
<feBlend mode="normal" in2="effect1_dropShadow" result="effect2_dropShadow"/>
<feColorMatrix in="SourceAlpha" type="matrix" values="0 0 0 0 0 0 0 0 0 0 0 0 0 0 0 0 0 0 127 0"/>
<feOffset dy="1"/>
<feGaussianBlur stdDeviation="1.5"/>
<feColorMatrix type="matrix" values="0 0 0 0 0 0 0 0 0 0 0 0 0 0 0 0 0 0 0.12 0"/>
<feBlend mode="normal" in2="effect2_dropShadow" result="effect3_dropShadow"/>
<feBlend mode="normal" in="SourceGraphic" in2="effect3_dropShadow" result="shape"/>
</filter>
<clipPath id="clip0">
<rect width="20" height="20" fill="white" transform="translate(0 -1)"/>
</clipPath>
</defs>
</svg>
